# xmcd
#
# Track frame offsets:
#	150
#	13488
#	25423
#	39401
#	56990
#	72001
#	88050
#	103176
#	122677
#	143160
#	156047
#	174142
#	187070
#	200845
#	217742
#
# Disc length: 3051 seconds
#
# Revision: 1
# Processed by: cddbd v1.5.2PL0 Copyright (c) Steve Scherf et al.
# Submitted via: audiograbber 1.83.01
#
DISCID=d80be90f
DTITLE=Johnny Cash - SC8835 Sound Choice (SC) 256 bit
DYEAR=1900
DGENRE=
TTITLE0=Ballad Of A Teenage Queen (SC) 256 bit
TTITLE1=Folsom Prison Blues (SC) 256 bit
TTITLE2=Daddy Sang Bass (SC) 256 bit
TTITLE3=Man In Black (SC) 256 bit
TTITLE4=A Boy Named Sue (SC) 256 bit
TTITLE5=Give My Love To Rose (SC) 256 bit
TTITLE6=Orange Blossom Special (SC) 256 bit
TTITLE7=Don't Take Your Guns To Town (SC) 256 bit
TTITLE8=Sunday Morning Coming Down (SC) 256 bit
TTITLE9=The Ballad Of Ira Hayes (SC) 256 bit
TTITLE10=I Walk The Line (SC) 256 bit
TTITLE11=Hurt (SC) 256 bit
TTITLE12=Ring Of Fire (SC) 256 bit
TTITLE13=Understand Your Man (SC) 256 bit
TTITLE14=Guess Things Happen That Way (SC) 256 bit
EXTD=
EXTT0=
EXTT1=
EXTT2=
EXTT3=
EXTT4=
EXTT5=
EXTT6=
EXTT7=
EXTT8=
EXTT9=
EXTT10=
EXTT11=
EXTT12=
EXTT13=
EXTT14=
PLAYORDER=
